<?xml version="1.0" encoding="UTF-8"?>
<svg width="88px" height="39px" viewBox="0 0 88 39" version="1.1" xmlns="http://www.w3.org/2000/svg" xmlns:xlink="http://www.w3.org/1999/xlink">
    <title>Combined Shape</title>
    <g id="Page-1" stroke="none" stroke-width="1" fill="none" fill-rule="evenodd">
        <g id="Artboard" transform="translate(-1099.000000, -1298.000000)" fill="#939DA4" fill-rule="nonzero">
            <g id="Logo-Section" transform="translate(0.000000, 1200.000000)">
                <g id="Logos" transform="translate(134.000000, 91.000000)">
                    <g id="ABC" transform="translate(965.082000, 7.115500)">
                        <path d="M37.4519274,0 L37.4519274,13.1314592 C37.4519274,13.1314592 39.3383325,9.72710688 44.1474163,9.72710688 C51.9791148,9.72710688 58.2514512,16.0413083 58.2514512,23.8635534 C58.2514512,31.6855735 51.9791148,38 44.1474163,38 C36.3157178,38 30.0271756,31.6857986 30.0271756,23.8635534 L30.0271756,23.8635534 L30.0271756,0.000450162295 L37.4519274,0 Z M14.115514,9.73205866 C21.9472125,9.73205866 28.231028,16.0413083 28.231028,23.8635534 L28.231028,23.8635534 L28.231028,37.6887128 L20.8044756,37.6887128 L20.8044756,34.6001493 L20.8044756,34.6001493 L20.7779257,34.6453464 C20.5345114,35.0473376 18.5967057,37.9952733 14.115514,37.9952733 C6.28381548,37.9952733 0,31.6860236 0,23.8637785 C0,16.0417585 6.28381548,9.73205866 14.115514,9.73205866 Z M73.578,9.732 L73.9152094,9.73596882 C80.5294119,9.88948648 85.9759206,14.5468445 87.3548937,20.7662118 L87.3548937,20.7662118 L79.5630346,20.7662118 C78.4466321,18.6014263 76.1919942,17.1203473 73.5781269,17.1203473 C69.8442557,17.1203473 66.8511266,20.1310328 66.8511266,23.8635534 C66.8511266,27.5960741 69.8442557,30.6067595 73.5781269,30.6067595 C76.1841164,30.6067595 78.4271175,29.1312851 79.5470538,26.977101 L79.5470538,26.977101 L87.3548937,26.977101 C85.9470112,33.2940034 80.338214,37.9952733 73.5781269,37.9952733 C65.7464283,37.9952733 59.4626128,31.6860236 59.4626128,23.8637785 C59.4626128,16.0417585 65.7464283,9.73205866 73.5781269,9.73205866 L73.578,9.732 Z M44.1474163,17.1198972 C40.4135451,17.1198972 37.4195157,20.1314829 37.4195157,23.8640036 C37.4195157,27.5965243 40.4135451,30.60811 44.1474163,30.60811 C47.8815125,30.60811 50.8753169,27.5965243 50.8753169,23.8640036 C50.8753169,20.1314829 47.8812875,17.1198972 44.1474163,17.1198972 Z M14.115514,17.1207975 C10.3816429,17.1207975 7.38851375,20.1314829 7.38851375,23.8640036 C7.38851375,27.5965243 10.3816429,30.6072097 14.115514,30.6072097 C17.8493852,30.6072097 20.8425143,27.5965243 20.8425143,23.8640036 C20.8425143,20.1314829 17.8493852,17.1207975 14.115514,17.1207975 Z" id="Combined-Shape"></path>
                    </g>
                </g>
            </g>
        </g>
    </g>
</svg>