<?xml version="1.0" encoding="UTF-8"?>
<svg width="153px" height="48px" viewBox="0 0 153 48" version="1.1" xmlns="http://www.w3.org/2000/svg" xmlns:xlink="http://www.w3.org/1999/xlink">
    <title>BI</title>
    <g id="Page-1" stroke="none" stroke-width="1" fill="none" fill-rule="evenodd">
        <g id="Artboard" transform="translate(-333.000000, -1304.000000)" fill="#939DA4">
            <g id="Logo-Section" transform="translate(0.000000, 1200.000000)">
                <g id="Logos" transform="translate(134.000000, 91.000000)">
                    <path d="M223.978022,41.7986941 L236.867844,53.9937139 L236.867844,42.0864683 L239.919972,42.0864683 L239.919972,61 L227.037969,48.5973604 L227.037969,60.7116393 L223.978022,60.7116393 L223.978022,41.7986941 Z M254.25891,41.7704836 C256.367169,41.7704836 258.288531,42.3153388 259.789962,43.2822758 L259.789962,43.2822758 L259.789962,46.5338119 C258.229295,45.3467432 256.521417,44.5299492 254.32577,44.5299492 C252.435883,44.5299492 251.0236,45.2556408 251.0236,46.7680195 C251.0236,48.1363156 251.910774,48.6821483 253.471245,49.2320864 L253.471245,49.2320864 L256.49307,50.3227742 C259.420469,51.3810092 260.764914,53.0239812 260.764914,55.7238197 C260.764914,59.1219798 257.858825,60.9983774 254.045034,60.9983774 C251.540694,60.9983774 249.409171,60.2775733 248.09796,59.3675263 L248.09796,59.3675263 L248.09796,56.0534306 C249.802905,57.4201628 251.851342,58.2093914 254.045034,58.2093914 C256.182422,58.2093914 257.683267,57.4528111 257.683267,55.7812963 C257.683267,54.3256122 256.727278,53.7539737 255.051071,53.1152791 L255.051071,53.1152791 L252.339698,52.1452141 C249.839464,51.2326257 247.939802,49.8985418 247.939802,46.8331206 C247.939802,43.5532372 250.81774,41.7704836 254.25891,41.7704836 Z M272.184293,42.0878759 L272.184293,60.7138289 L269.003723,60.7138289 L269.003723,42.0878759 L272.184293,42.0878759 Z M214.859547,42.0878759 L214.859547,60.7132424 L211.675263,60.7132424 L211.675263,42.0878759 L214.859547,42.0878759 Z M288.66797,42.0876999 C294.197849,42.0876999 297.773131,45.7271057 297.773131,51.395398 C297.773131,57.0715102 294.197849,60.7130664 288.66797,60.7130664 L288.66797,60.7130664 L281.483975,60.7130664 L281.483975,42.0876999 Z M315.855558,42.0876999 L315.855558,44.8770769 L307.606291,44.8770769 L307.606291,49.3588869 L315.004943,49.3588869 L315.004943,52.116984 L307.606291,52.116984 L307.606291,57.8947557 L315.855558,57.8947557 L315.855558,60.7130664 L304.493754,60.7130664 L304.493754,42.0876999 L315.855558,42.0876999 Z M332.151087,42.0876999 C336.0247,42.0876999 338.529431,44.0247021 338.529431,47.6713413 C338.529431,50.7893517 337.139435,52.5803162 334.176064,53.0387609 L334.176064,53.0387609 L340.916472,60.7126754 L337.30991,60.7126754 L330.784355,53.1560602 L328.527908,53.1560602 L328.527908,60.7126754 L325.358286,60.7126754 L325.358286,42.0876999 Z M288.548911,44.8776634 L284.659071,44.8776634 L284.659071,57.8949512 L288.548911,57.8949512 C292.482738,57.8949512 294.586696,55.3739941 294.586696,51.395398 C294.586696,47.3888455 292.482738,44.8776634 288.548911,44.8776634 L288.548911,44.8776634 Z M332.090287,44.8199912 L328.527908,44.8199912 L328.527908,50.5221048 L332.090287,50.5221048 C334.199524,50.5221048 335.388743,49.3975957 335.388743,47.6713413 C335.388743,45.9439138 334.199524,44.8199912 332.090287,44.8199912 L332.090287,44.8199912 Z M222.695882,13.3205398 L222.695882,24.3556653 C222.695882,27.993116 224.234262,29.6884816 227.064889,29.6884816 C229.895516,29.6884816 231.433897,27.993116 231.433897,24.3556653 L231.433897,24.3556653 L231.433897,13.3205398 L234.634016,13.3205398 L234.634016,24.7257445 C234.634016,29.9041168 231.587559,32.5554716 227.064889,32.5554716 C222.572522,32.5554716 219.495762,29.9041168 219.495762,24.6958332 L219.495762,24.6958332 L219.495762,13.3205398 L222.695882,13.3205398 Z M248.383662,13.0124142 C250.506584,13.0124142 252.44515,13.5676308 253.952446,14.5541177 L253.952446,14.5541177 L253.952446,17.851987 C252.383177,16.6492784 250.660832,15.818213 248.445635,15.818213 C246.537763,15.818213 245.122156,16.5575895 245.122156,18.0990975 C245.122156,19.4857705 246.014608,20.0409871 247.584072,20.5956172 L247.584072,20.5956172 L250.629748,21.7054639 C253.583735,22.7848128 254.937369,24.4487032 254.937369,27.1923334 C254.937369,30.6444512 252.014857,32.555452 248.168027,32.555452 C245.645311,32.555452 243.4915,31.8156845 242.169342,30.8905842 L242.169342,30.8905842 L242.169342,27.5313283 C243.891295,28.9180013 245.95283,29.7193509 248.168027,29.7193509 C250.322424,29.7193509 251.829133,28.9492811 251.829133,27.253329 C251.829133,25.7739895 250.875881,25.1884706 249.183643,24.5409786 L249.183643,24.5409786 L246.445487,23.5550781 C243.922184,22.6299778 242.014507,21.2741936 242.014507,18.1604842 C242.014507,14.8311395 244.906521,13.0124142 248.383662,13.0124142 Z M344.545027,13 C346.667949,13 348.605928,13.5546301 350.11381,14.5417036 L350.11381,14.5417036 L350.11381,17.8393774 C348.544737,16.6372552 346.821611,15.8052123 344.605241,15.8052123 C342.699127,15.8052123 341.283521,16.5449798 341.283521,18.0860969 C341.283521,19.4733564 342.175386,20.0279865 343.74485,20.5832031 L343.74485,20.5832031 L346.790526,21.6924633 C349.743927,22.7710302 351.098342,24.4360935 351.098342,27.1793327 C351.098342,30.631255 348.175244,32.5430378 344.329392,32.5430378 C341.805502,32.5430378 339.652865,31.8026839 338.329534,30.8779745 L338.329534,30.8779745 L338.329534,27.5183276 C340.05266,28.9055871 342.114195,29.7069367 344.329392,29.7069367 C346.483202,29.7069367 347.990498,28.9360849 347.990498,27.2407193 C347.990498,25.7621619 347.036659,25.17547 345.344617,24.5285644 L345.344617,24.5285644 L342.606265,23.5426639 C340.083549,22.6173681 338.175872,21.2606064 338.175872,18.1478745 C338.175872,14.8187254 341.067885,13 344.545027,13 Z M325.220831,13 C327.342775,13 329.281341,13.5546301 330.789223,14.5417036 L330.789223,14.5417036 L330.789223,17.8393774 C329.219954,16.6372552 327.497023,15.8052123 325.280653,15.8052123 C323.373953,15.8052123 321.95952,16.5449798 321.95952,18.0860969 C321.95952,19.4733564 322.850799,20.0279865 324.419676,20.5832031 L324.419676,20.5832031 L327.465939,21.6924633 C330.418753,22.7710302 331.773559,24.4360935 331.773559,27.1793327 C331.773559,30.631255 328.850657,32.5430378 325.004804,32.5430378 C322.481501,32.5430378 320.327105,31.8026839 319.004946,30.8779745 L319.004946,30.8779745 L319.004946,27.5183276 C320.728073,28.9055871 322.789412,29.7069367 325.004804,29.7069367 C327.157442,29.7069367 328.66591,28.9360849 328.66591,27.2407193 C328.66591,25.7621619 327.712072,25.17547 326.019834,24.5285644 L326.019834,24.5285644 L323.281678,23.5426639 C320.758375,22.6173681 318.850698,21.2606064 318.850698,18.1478745 C318.850698,14.8187254 321.743298,13 325.220831,13 Z M275.500226,13.0259427 L288.486234,25.4213488 L288.486234,13.3203639 L291.560257,13.3203639 L291.560257,32.5418062 L278.583047,19.9362389 L278.583047,32.246994 L275.500226,32.246994 L275.500226,13.0259427 Z M311.554975,13.3211263 L311.554975,16.1556635 L303.247058,16.1556635 L303.247058,20.7098081 L310.6983,20.7098081 L310.6983,23.5122834 L303.247058,23.5122834 L303.247058,29.383699 L311.554975,29.383699 L311.554975,32.24717 L300.111649,32.24717 L300.111649,13.3211263 L311.554975,13.3211263 Z M205.614702,13.3211263 C209.553416,13.3211263 212.014746,15.0782696 212.014746,18.4684143 C212.014746,20.5027749 210.938134,21.9825053 209.553416,22.4763353 C211.338516,23.0618542 212.630177,24.8186064 212.630177,26.8224692 C212.630177,30.3668625 210.168847,32.2475609 206.230719,32.2475609 L206.230719,32.2475609 L199,32.2475609 L199,13.3211263 Z M266.37094,13.3204225 L266.37094,32.2468572 L263.171407,32.2468572 L263.171407,13.3204225 L266.37094,13.3204225 Z M206.168746,23.9243949 L202.107649,23.9243949 L202.107649,29.4726509 L206.168746,29.4726509 C208.323142,29.4726509 209.491639,28.394084 209.491639,26.6987184 C209.491639,24.972855 208.323142,23.9243949 206.168746,23.9243949 L206.168746,23.9243949 Z M205.584204,16.0962318 L202.107649,16.0962318 L202.107649,21.2742131 L205.584204,21.2742131 C207.769099,21.2742131 208.938573,20.4413882 208.938573,18.6535517 C208.938573,16.8661061 207.769099,16.0962318 205.584204,16.0962318 L205.584204,16.0962318 Z" id="BI"></path>
                </g>
            </g>
        </g>
    </g>
</svg>