<?xml version="1.0" encoding="UTF-8"?>
<svg width="50px" height="50px" viewBox="0 0 50 50" version="1.1" xmlns="http://www.w3.org/2000/svg" xmlns:xlink="http://www.w3.org/1999/xlink">
    <title>Logos Copy</title>
    <g id="Page-1" stroke="none" stroke-width="1" fill="none" fill-rule="evenodd">
        <g id="Matthew-Hussey-Logo" fill="#34333E">
            <path d="M24.8139629,0 C38.5069189,0 49.6283189,11.2046914 49.6283189,24.999802 C49.6283189,38.7949126 38.5069189,50 24.8139629,50 C11.0927092,49.9706984 0,38.7949126 0,24.999802 C0,11.2046914 11.121793,0 24.8139629,0 Z M24.8139629,1.94974381 C12.1904253,1.94974381 1.96433393,12.2524213 1.93564318,24.999802 C1.93564318,37.7182771 12.1617345,48.0498602 24.8139629,48.0498602 C37.4669774,48.0498602 47.6930688,37.7471827 47.6930688,24.999802 C47.6930688,12.2524213 37.4378937,1.94974381 24.8139629,1.94974381 Z M26.6627478,20.459639 C27.7166349,21.6137477 27.8439518,23.1890315 27.8515217,23.8349283 L27.8513106,23.9814526 C27.8503774,24.0432855 27.8486005,24.0873084 27.8477704,24.1105244 L27.8473221,31.0822583 C27.8764059,31.4897088 27.5875333,31.7807449 27.2408861,31.7807449 C26.894239,31.7807449 26.5762825,31.4897088 26.5762825,31.1115599 L26.5762825,24.0973922 C26.5762825,24.0395809 26.6918316,22.3804772 25.7387484,21.3620489 C25.1319194,20.7799767 24.323076,20.459639 23.4851488,20.5178463 C22.734473,20.459639 21.9834041,20.7506751 21.4343496,21.3034457 C20.5484735,22.279819 20.5913329,23.8976843 20.5964425,24.0308113 L20.5968155,31.1115599 C20.5968155,31.2835752 20.526737,31.4484822 20.4107179,31.5715534 C20.3200949,31.6766636 20.1921927,31.7477544 20.0447211,31.7717615 C20.0392991,31.7719385 20.0338946,31.7728167 20.0284661,31.7736276 C19.997053,31.7785337 19.9649624,31.7807449 19.9322119,31.7807449 C19.5855647,31.7807449 19.2680014,31.4897088 19.2680014,31.1115599 L19.2680014,24.0973922 C19.2680014,24.0934052 19.2652497,24.0478873 19.2639925,23.9685525 L19.2637583,23.825152 C19.2642875,23.7798286 19.2654174,23.7295302 19.2674354,23.6747788 C19.2412812,23.1029438 19.0978859,22.0753529 18.4300742,21.3620489 C17.8236382,20.7799767 17.0147948,20.459639 16.1768676,20.5178463 C15.4257988,20.459639 14.6460392,20.7506751 14.1256754,21.3034457 C13.3941759,22.1100149 13.295971,23.354351 13.2868015,23.837817 L13.2869747,24.0052016 C13.2875408,24.0276551 13.2881413,24.0395809 13.2881413,24.0395809 L13.2881413,31.1115599 C13.2881413,31.4608032 12.9992686,31.7807449 12.6239307,31.7807449 C12.2481998,31.7807449 11.9593271,31.4897088 11.9593271,31.1115599 L11.9593271,24.0973922 C11.9593271,24.0684865 11.8150873,21.8566123 13.1439015,20.4014318 C13.9236611,19.5865308 15.0213771,19.1501746 16.1481769,19.2083818 C17.361442,19.1501746 18.5169325,19.6158324 19.3544666,20.459639 C19.5689429,20.6945113 19.7450338,20.9468271 19.8895433,21.205203 C20.0382152,20.9250573 20.2233511,20.6520245 20.4521827,20.4014318 C21.2323353,19.5865308 22.3300513,19.1501746 23.4564581,19.2083818 C24.6697231,19.1501746 25.8252137,19.6158324 26.6627478,20.459639 Z M30.2160778,14.6096157 C30.5627249,14.6096157 30.8515976,14.9006518 30.8806813,15.2791967 L30.879877,20.2317416 C31.6449552,19.5263993 32.6657662,19.1543554 33.7116332,19.2083818 C34.8958145,19.1501746 36.0799958,19.6158324 36.9179229,20.459639 C38.1992794,21.8628487 38.1109212,23.8886663 38.1029755,24.1359594 L38.1024972,31.1115599 C38.1024972,31.4897088 37.8136246,31.7807449 37.4669774,31.7807449 C37.1203303,31.7807449 36.8023739,31.4897088 36.8023739,31.1115599 L36.8023739,24.0973922 C36.8023739,24.0395809 36.9179229,22.3804772 35.9648397,21.3620489 C35.3580107,20.7799767 34.5491673,20.4885447 33.7403239,20.5178463 C32.9892551,20.459639 32.2381862,20.7506751 31.6895247,21.2745401 C31.1412152,21.8604289 30.9464305,22.6771749 30.8798969,23.2710831 L30.8806813,31.1115599 C30.8806813,31.4897088 30.5918087,31.7807449 30.2160778,31.7807449 L30.202693,31.7805672 C30.1976074,31.7806854 30.1925052,31.7807449 30.187387,31.7807449 C29.8403468,31.7807449 29.5518672,31.4897088 29.5227834,31.1115599 L29.5227834,24.0973922 C29.5227834,24.0934052 29.5200393,24.0478873 29.5187939,23.9685525 L29.5185804,23.825152 C29.5202991,23.6796905 29.5282101,23.4829847 29.5518048,23.2522907 L29.5518672,15.2791967 C29.5518672,14.9299534 29.8403468,14.6096157 30.2160778,14.6096157 Z" id="Fill-34"></path>
        </g>
    </g>
</svg>