<?xml version="1.0" encoding="UTF-8"?>
<svg width="130px" height="70px" viewBox="0 0 130 70" version="1.1" xmlns="http://www.w3.org/2000/svg" xmlns:xlink="http://www.w3.org/1999/xlink">
    <title>Combined Shape</title>
    <g id="Page-1" stroke="none" stroke-width="1" fill="none" fill-rule="evenodd">
        <g id="Artboard" transform="translate(-901.000000, -1291.000000)" fill="#939DA4" fill-rule="nonzero">
            <g id="Logo-Section" transform="translate(0.000000, 1200.000000)">
                <g id="Logos" transform="translate(134.000000, 91.000000)">
                    <g id="GMA" transform="translate(767.305000, 0.000000)">
                        <path d="M128.179473,66.0907251 C121.872905,67.1571157 121.587998,67.4404771 115.753596,70 C81.0592834,61.1855137 29.0675649,61.7764937 2.04409561,67.2974059 C0.478037174,67.6183119 -0.779939125,67.3232081 1.76227925,66.6662547 C29.7175656,59.3745655 106.141557,58.6975264 128.179473,66.0907251 Z M99.1633577,36.7801245 C101.719945,36.7801245 103.981583,37.5643898 105.949662,39.1261221 C107.916506,40.6892449 109.246172,42.7891167 109.936344,45.4300635 L104.201907,45.4300635 C103.02829,43.25433 101.356241,42.1633731 99.1848338,42.1633731 C97.5846299,42.1633731 96.22329,42.7132549 95.1082305,43.8096195 C93.9930164,44.9061385 93.4377269,46.2472382 93.4377269,47.8318372 C93.4377269,49.5165552 93.9988876,50.9537568 95.1224449,52.141897 C96.2504828,53.3298827 97.5716515,53.9237983 99.0932126,53.9237983 C101.221359,53.9237983 102.880738,52.8861456 104.075831,50.8148572 L109.824637,50.8148572 C109.114534,53.4213494 107.803408,55.479814 105.88817,56.9871607 C103.971695,58.4958979 101.706967,59.2472537 99.0933671,59.2472537 C95.8909507,59.2472537 93.2401156,58.1379108 91.1433339,55.9206155 C89.0446982,53.6991487 87.9954576,50.9896018 87.9954576,47.7862584 C87.9954576,44.7256771 89.0864144,42.1278371 91.266165,39.9891847 C93.4493148,37.8506868 96.0786737,36.7801245 99.1633577,36.7801245 Z M69.5649151,37.2479644 C72.0970907,37.2479644 73.9219443,37.6431871 75.0359223,38.4317785 C76.9839161,39.7844661 77.9557499,41.7968883 77.9557499,44.4622468 C77.9557499,46.2027409 77.5232916,47.6870664 76.6619285,48.9224851 C75.8014925,50.1551226 74.6020735,50.9835762 73.0630533,51.4058372 L78.3522086,58.836426 L71.8007509,58.836426 L67.656938,51.8767671 L67.656938,58.836426 L62.3920399,58.836426 L62.3920399,37.2479644 L69.5649151,37.2479644 Z M86.0817638,37.2495094 L86.0817638,58.834881 L80.8173292,58.834881 L80.8173292,37.2495094 L86.0817638,37.2495094 Z M120.804814,37.2495094 L129.118706,58.834881 L123.274261,58.834881 L122.206325,55.6802064 L115.0523,55.6802064 L113.957017,58.834881 L108.174219,58.834881 L116.484712,37.2495094 L120.804814,37.2495094 Z M12.6352301,37.2495094 L20.9475766,58.834881 L15.1015868,58.834881 L14.0381317,55.6802064 L6.88240656,55.6802064 L5.78727809,58.834881 L0,58.834881 L8.31389151,37.2495094 L12.6352301,37.2495094 Z M29.0575221,37.2495094 L33.1858845,50.4454367 L37.3425212,37.2495094 L44.5368725,37.2495094 L44.5368725,58.834881 L39.5038858,58.834881 L39.5038858,44.5481514 L35.0495187,58.834881 L31.3220957,58.834881 L26.8675741,44.5481514 L26.8675741,58.834881 L21.8347419,58.834881 L21.8347419,37.2495094 L29.0575221,37.2495094 Z M59.0196684,37.2495094 L59.0196684,42.0488852 L52.5511796,42.0488852 L52.5511796,45.498509 L59.0196684,45.498509 L59.0196684,50.2968033 L52.5511796,50.2968033 L52.5511796,54.0399858 L59.0196684,54.0399858 L59.0196684,58.834881 L47.2850455,58.834881 L47.2850455,37.2495094 L59.0196684,37.2495094 Z M10.4607327,44.3048066 L8.30091312,51.2329466 L12.5877972,51.2329466 L10.4607327,44.3048066 Z M118.632016,44.3048066 L116.472197,51.2329466 L120.760472,51.2329466 L118.632016,44.3048066 Z M69.1326113,42.1046614 L67.656938,42.1046614 L67.656938,47.1948148 L68.700462,47.1948148 C70.050214,47.1948148 71.0464595,46.9987485 71.6790013,46.6080064 C72.3116975,46.2157193 72.6324491,45.548723 72.6324491,44.6039275 C72.6324491,42.9391406 71.4628494,42.1046614 69.1326113,42.1046614 Z M105.570508,18.5280349 C107.282573,18.5280349 108.821285,19.0175054 110.188187,19.999382 C111.556634,20.9855847 112.55875,22.3169507 113.198554,23.9987331 L108.779568,23.9987331 C107.797692,22.9565997 106.712606,22.4371553 105.520294,22.4371553 C104.360892,22.4371553 103.37747,22.849219 102.573119,23.6722649 C101.771395,24.4911392 101.36922,25.4759514 101.36922,26.6296371 C101.36922,27.8690728 101.781592,28.9271202 102.606029,29.8002256 C103.433246,30.6720949 104.402299,31.111506 105.517513,31.111506 C107.093305,31.111506 108.280055,30.3871885 109.08317,28.9427252 L105.705236,28.9427252 L105.705236,25.7793984 L113.589141,25.7793984 C113.618034,26.2561995 113.635029,26.6039893 113.635029,26.8258579 C113.635029,28.6023516 113.181095,30.1453888 112.275234,31.4707291 C111.516462,32.5743553 110.540303,33.441744 109.345055,34.0728953 C108.146872,34.7040465 106.874527,35.024798 105.52323,35.024798 C103.175687,35.024798 101.23202,34.2060782 99.6957805,32.578527 C98.1586144,30.9468041 97.3870185,28.9584846 97.3870185,26.6067704 C97.3870185,24.3608918 98.1871978,22.4541508 99.7833846,20.8811396 C101.382198,19.3107551 103.313042,18.5280349 105.570508,18.5280349 Z M40.7219999,18.5610988 C42.9076217,18.5610988 44.7987578,19.342583 46.3918545,20.9027703 C48.0279035,22.5059098 48.8466233,24.4298008 48.8466233,26.6727438 C48.8466233,28.9745531 48.0810531,30.9240919 46.5465136,32.513017 C44.956198,34.1618899 43.0065046,34.9864808 40.6991332,34.9864808 C38.331505,34.9864808 36.3793396,34.1804304 34.8406285,32.5658576 C33.3002179,30.9540658 32.528931,28.9686819 32.528931,26.6069249 C32.528931,24.3610463 33.3260201,22.461567 34.9163358,20.9027703 C36.5097415,19.342583 38.4449114,18.5610988 40.7219999,18.5610988 Z M55.1221359,18.8458508 C56.979899,18.8458508 58.3154366,19.1364739 59.1313752,19.7132395 C60.5585341,20.7124206 61.2712637,22.1896389 61.2712637,24.1533921 C61.2712637,25.4331536 60.9566924,26.5253465 60.3266227,27.4356875 C59.6939264,28.3418568 58.8168039,28.9516864 57.6841308,29.2636312 L61.5676035,34.7031194 L56.7711633,34.7031194 L53.7377748,29.5973611 L53.7377748,34.7031194 L49.8601734,34.7031194 L49.8601734,18.8458508 L55.1221359,18.8458508 Z M81.6175085,18.8472413 L81.6175085,34.7029649 L77.741143,34.7029649 L77.741143,18.8472413 L81.6175085,18.8472413 Z M86.7846052,18.8472413 L92.6006211,27.657556 L92.6006211,18.8472413 L96.4738965,18.8472413 L96.4738965,34.7015744 L93.0628988,34.7015744 L87.1597423,25.8739552 L87.1597423,34.7015744 L83.2863124,34.7015744 L83.2863124,18.8472413 L86.7846052,18.8472413 Z M66.4273906,18.8472413 L72.2415525,27.657556 L72.2415525,18.8472413 L76.1179179,18.8472413 L76.1179179,34.7015744 L72.7067658,34.7015744 L66.8022187,25.8739552 L66.8022187,34.7015744 L62.9277073,34.7015744 L62.9277073,18.8472413 L66.4273906,18.8472413 Z M20.2129073,18.8472413 L23.2461412,28.5465754 L26.2979157,18.8472413 L31.5811999,18.8472413 L31.5811999,34.7015744 L27.8839053,34.7015744 L27.8839053,24.2221467 L24.6130433,34.7015744 L21.8747586,34.7015744 L18.6055962,24.2221467 L18.6055962,34.7015744 L14.908147,34.7015744 L14.908147,18.8472413 L20.2129073,18.8472413 Z M40.7362143,22.4730003 C39.5596619,22.4730003 38.5603263,22.8781113 37.740216,23.6881789 C36.9216507,24.5013365 36.509587,25.4875392 36.509587,26.6512677 C36.509587,27.8879224 36.9275219,28.9329914 37.7633917,29.7903373 C38.5964804,30.6462927 39.5740309,31.0742704 40.692026,31.0742704 C41.8569906,31.0742704 42.8360861,30.657726 43.6334842,29.8232468 C44.4307279,28.9901581 44.8287317,27.9308747 44.8287317,26.6511132 C44.8287317,25.4873847 44.4277923,24.501182 43.6220509,23.6881789 C42.8144554,22.8781113 41.8568361,22.4730003 40.7362143,22.4730003 Z M54.8100366,22.4028552 L53.7377748,22.4028552 L53.7377748,26.1702949 L54.4965468,26.1702949 C55.4812045,26.1702949 56.207067,26.0258332 56.6679542,25.7338195 C57.1319315,25.4445869 57.3621433,24.9521808 57.3621433,24.2508845 C57.3621433,23.0199465 56.5117501,22.4028552 54.8100366,22.4028552 Z M39.9249108,0 C41.6352765,0 43.1739876,0.492560604 44.5427437,1.47304668 C45.9084097,2.45615933 46.9129985,3.78907035 47.5515659,5.47224325 L43.1342799,5.47224325 C42.1493132,4.43304544 41.0645366,3.91205599 39.8762418,3.91205599 C38.7139039,3.91205599 37.7321818,4.32288367 36.9276764,5.14299399 C36.1261066,5.9661944 35.7236222,6.95378768 35.7236222,8.10314726 C35.7236222,9.34258301 36.1359949,10.4006304 36.9604314,11.2751263 C37.7865674,12.1482317 38.7570106,12.5848616 39.8722247,12.5848616 C41.4466264,12.5848616 42.6346121,11.8633252 43.4391175,10.4163898 L40.0580937,10.4163898 L40.0580937,7.25290855 L47.9449346,7.25290855 C47.9738269,7.72955518 47.9877323,8.07734499 47.9877323,8.3035397 C47.9877323,10.0741622 47.5353429,11.6215256 46.6294826,12.9456298 C45.8707106,14.047711 44.8931601,14.9137092 43.6977581,15.547796 C42.5026652,16.1804923 41.2301655,16.4953726 39.8760873,16.4953726 C37.5299353,16.4953726 35.5861131,15.6809789 34.048638,14.0518826 C32.511472,12.4243314 31.7426572,10.4318403 31.7426572,8.08012608 C31.7426572,5.83563803 32.5400553,3.92318032 34.1374782,2.3574309 C35.7364461,0.784419758 37.6662083,0 39.9249108,0 Z M56.9054277,0.0358450628 C59.0955302,0.0358450628 60.9849667,0.817329234 62.5768274,2.37612595 C64.2144215,3.97787494 65.0328322,5.90454707 65.0328322,8.14903512 C65.0328322,10.4522349 64.2655625,12.3988381 62.7356581,13.9877632 C61.1424069,15.6369451 59.1928681,16.4613816 56.8839516,16.4613816 C54.518023,16.4613816 52.5657031,15.6539406 51.0251379,14.0421488 C49.4851907,12.4303571 48.7151399,10.4449732 48.7151399,8.08028058 C48.7151399,5.83872812 49.5108385,3.93492267 51.1056348,2.37612595 C52.6944054,0.817329234 54.6297298,0.0358450628 56.9054277,0.0358450628 Z M74.0083123,0.0358450628 C76.1965607,0.0358450628 78.0861518,0.817329234 79.6792485,2.37612595 C81.3152975,3.97787494 82.1357168,5.90454707 82.1357168,8.14903512 C82.1357168,10.4522349 81.3695286,12.3988381 79.8366887,13.9877632 C78.2420469,15.6369451 76.2952892,16.4613816 73.9865272,16.4613816 C71.620444,16.4613816 69.6667336,15.6539406 68.1249324,14.0421488 C66.5862213,12.4303571 65.8161704,10.4449732 65.8161704,8.08028058 C65.8161704,5.83872812 66.611869,3.93492267 68.2051203,2.37612595 C69.796981,0.817329234 71.7335414,0.0358450628 74.0083123,0.0358450628 Z M88.5383867,0.320597006 C89.8935463,0.320597006 90.9974816,0.44080157 91.8433942,0.678429615 C92.8098203,0.959164439 93.6900329,1.47150163 94.4772337,2.2157502 C96.0273782,3.6728829 96.8005191,5.70832625 96.8005191,8.32486133 C96.8005191,10.7498107 96.0343309,12.7121734 94.5016455,14.2124129 C93.6955951,15.0025493 92.8626609,15.5379077 92.0008343,15.8197241 C91.2551952,16.0575066 90.2816619,16.1763206 89.0765261,16.1763206 L83.1146578,16.1763206 L83.1146578,0.320597006 L88.5383867,0.320597006 Z M88.5278804,3.73453023 L86.9879332,3.73453023 L86.9879332,12.6922423 L88.5526011,12.6922423 C90.0397077,12.6922423 91.1388533,12.328693 91.853437,11.5986589 C92.564776,10.8714058 92.9253897,9.73626068 92.9253897,8.19183289 C92.9253897,6.76328353 92.5502526,5.66537398 91.7987423,4.89115152 C91.0458415,4.11940114 89.9579748,3.73453023 88.5278804,3.73453023 Z M56.9245863,3.94774655 C55.7447893,3.94774655 54.7457627,4.3542481 53.9270429,5.16447013 C53.1064691,5.97469215 52.6971865,6.96367597 52.6971865,8.12601394 C52.6971865,9.36143257 53.1135763,10.4091281 53.9483646,11.2650835 C54.7843889,12.1239745 55.7605488,12.5505616 56.8785439,12.5505616 C58.0421179,12.5505616 59.0212135,12.1324722 59.8172211,11.2993835 C60.6160098,10.4635137 61.0166401,9.40716592 61.0166401,8.12585943 C61.0166401,6.96352147 60.6130742,5.97453765 59.8070238,5.16447013 C59.0043725,4.3542481 58.0422725,3.94774655 56.9245863,3.94774655 Z M74.0268529,3.94774655 C72.8473649,3.94774655 71.8480293,4.3542481 71.0307001,5.16447013 C70.2090447,5.97469215 69.7997621,6.96367597 69.7997621,8.12601394 C69.7997621,9.36143257 70.2149159,10.4091281 71.0492406,11.2650835 C71.8866554,12.1239745 72.8626609,12.5505616 73.980965,12.5505616 C75.1431485,12.5505616 76.122244,12.1324722 76.9196422,11.2993835 C77.7182763,10.4635137 78.1175162,9.40716592 78.1175162,8.12585943 C78.1175162,6.96352147 77.7139502,5.97453765 76.9097539,5.16447013 C76.1052485,4.3542481 75.143303,3.94774655 74.0268529,3.94774655 Z" id="Combined-Shape"></path>
                    </g>
                </g>
            </g>
        </g>
    </g>
</svg>