<?xml version="1.0" encoding="UTF-8"?>
<svg width="51px" height="66px" viewBox="0 0 51 66" version="1.1" xmlns="http://www.w3.org/2000/svg" xmlns:xlink="http://www.w3.org/1999/xlink">
    <title>Combined Shape</title>
    <g id="Page-1" stroke="none" stroke-width="1" fill="none" fill-rule="evenodd">
        <g id="Artboard" transform="translate(-1256.000000, -1292.000000)" fill="#939DA4">
            <g id="Logo-Section" transform="translate(0.000000, 1200.000000)">
                <g id="Logos" transform="translate(134.000000, 91.000000)">
                    <g id="iHeartRadio" transform="translate(1122.000000, 1.000000)">
                        <path d="M45.4063945,54.6893856 C48.7347188,54.6893856 50.968284,57.2983718 50.968284,60.314137 L50.968284,60.3459325 C50.968284,63.3599475 48.7029232,66 45.375474,66 C42.047879,66 39.8143137,63.3908679 39.8143137,60.3761237 L39.8143137,60.3459325 C39.8143137,57.3303132 42.0796745,54.6893856 45.4063945,54.6893856 Z M4.70224257,54.8770961 C6.04553209,54.8770961 7.12351828,55.2835833 7.81047742,55.97098 C8.34195918,56.5015867 8.65422659,57.2674513 8.65422659,58.1270983 L8.65422659,58.1580187 C8.65422659,59.9549055 7.4357857,61.0006585 5.73370223,61.3296988 L8.45091002,64.8285232 C8.57663375,64.969853 8.65422659,65.1094326 8.65422659,65.2808078 C8.65422659,65.6089729 8.34195918,65.8906116 8.03012932,65.8906116 C7.77955697,65.8906116 7.59184648,65.7503028 7.45139177,65.5624464 L4.37407738,61.5630608 L1.23390112,61.5630608 L1.23390112,65.2653475 C1.23390112,65.6089729 0.952262461,65.8906116 0.608928745,65.8906116 C0.280763553,65.8906116 0,65.6089729 0,65.2653475 L0,55.5023601 C0,55.1587347 0.280763553,54.8770961 0.608928745,54.8770961 L4.70224257,54.8770961 Z M15.901135,54.7522474 C16.2758267,54.7522474 16.5268366,54.9554182 16.6664162,55.2999187 L21.1042306,64.9853132 C21.1500278,65.0947016 21.1818234,65.2032149 21.1818234,65.2971431 C21.1818234,65.624579 20.9165201,65.8906116 20.5886466,65.8906116 C20.2915477,65.8906116 20.0882311,65.6874409 19.9788427,65.4375978 L18.8379947,62.9223939 L12.8392808,62.9223939 L11.6984328,65.4686641 C11.5899195,65.7346967 11.3866029,65.8906116 11.1049642,65.8906116 C10.7931344,65.8906116 10.5421245,65.6409144 10.5421245,65.3282094 C10.5421245,65.2351563 10.5584598,65.1257679 10.6204466,65.0007735 L15.0582609,55.2999187 C15.2133007,54.9554182 15.4481212,54.7522474 15.8391482,54.7522474 L15.901135,54.7522474 Z M36.4721336,54.798774 C36.815759,54.798774 37.0966684,55.0811419 37.0966684,55.424038 L37.0966684,65.2653475 C37.0966684,65.6089729 36.815759,65.8906116 36.4721336,65.8906116 C36.1446976,65.8906116 35.863059,65.6089729 35.863059,65.2653475 L35.863059,55.424038 C35.863059,55.0811419 36.1446976,54.798774 36.4721336,54.798774 Z M27.3352854,54.8770961 C30.7722688,54.8770961 33.1462888,57.236385 33.1462888,60.314137 L33.1462888,60.3459325 C33.1462888,63.4219343 30.7722688,65.8122895 27.3352854,65.8122895 L24.1479992,65.8122895 C23.8202715,65.8122895 23.539508,65.5313801 23.539508,65.1877547 L23.539508,55.5023601 C23.539508,55.1587347 23.8202715,54.8770961 24.1479992,54.8770961 L27.3352854,54.8770961 Z M45.375474,55.8306712 C42.8764596,55.8306712 41.095179,57.8307286 41.095179,60.314137 L41.095179,60.3459325 C41.095179,62.8293408 42.9075259,64.8604646 45.4063945,64.8604646 C47.9061381,64.8604646 49.6874188,62.8602613 49.6874188,60.3761237 L49.6874188,60.3459325 C49.6874188,57.8609198 47.8750718,55.8306712 45.375474,55.8306712 Z M27.3352854,56.0183817 L24.772534,56.0183817 L24.772534,64.6734834 L27.3352854,64.6734834 C30.0996031,64.6734834 31.8654235,62.7982745 31.8654235,60.3761237 L31.8654235,60.3459325 C31.8654235,57.9237817 30.0996031,56.0183817 27.3352854,56.0183817 Z M15.8391482,56.2052171 L13.3237985,61.7981729 L18.3543521,61.7981729 L15.8391482,56.2052171 Z M4.6083144,56.0183817 L1.23390112,56.0183817 L1.23390112,60.4544458 L4.59285418,60.4544458 C6.23295088,60.4544458 7.40486524,59.6104049 7.40486524,58.2054204 L7.40486524,58.1743541 C7.40486524,56.8298977 6.37325973,56.0183817 4.6083144,56.0183817 Z M30.7080943,43.0964032 C33.5834048,43.0964032 35.6139451,45.007929 35.6139451,47.8502771 L35.6139451,47.8502771 L35.6139451,47.8841146 C35.6139451,47.9148892 35.6108823,47.9423092 35.6100072,47.9722087 L35.6100072,47.9722087 L35.6100072,52.4499863 L32.5684263,52.4499863 L32.5684263,51.5678783 C31.9557054,52.2036436 31.0422394,52.6702216 29.8531146,52.6702216 C27.6581999,52.6702216 26.3836063,51.7111041 26.3836063,49.9226768 C26.3836063,48.0655535 27.7648172,47.0854334 30.3950976,47.0510126 L30.3950976,47.0510126 L32.5116902,47.0419698 L32.508919,46.9719612 C32.2469703,45.9951957 31.5257361,45.4975515 30.5387611,45.4975515 C29.7769803,45.4975515 29.1683432,45.786191 28.5082207,46.4298323 L28.5082207,46.4298323 L26.7307322,44.957902 C27.6116734,43.8408277 28.880433,43.0964032 30.7080943,43.0964032 Z M21.4278744,43.0947989 C24.5916785,43.0947989 26.0463984,45.4120827 26.0463984,48.1027455 C26.0463984,48.305187 26.0463984,48.5414659 26.0294796,48.7624305 L19.9047503,48.7624305 C20.1591148,49.7609278 20.886183,50.2690734 21.8843886,50.2690734 C22.6461694,50.2690734 23.2548065,49.980288 23.914929,49.3367925 L25.6924175,50.8087228 C24.8113304,51.9257971 23.5427167,52.6702216 21.7149095,52.6702216 C18.839599,52.6702216 16.8090587,50.7586958 16.8090587,47.9163477 L16.8090587,47.8825102 C16.8090587,45.2094954 18.7207303,43.0947989 21.4278744,43.0947989 Z M48.1871934,40.9790814 L48.1871934,43.2972403 L50.3189545,43.2972403 L50.3189545,45.8853698 L48.1871934,45.8853698 L48.1871934,48.9826658 C48.1871934,49.625432 48.4759787,49.8948192 49.0663844,49.8948192 C49.4897904,49.8948192 49.8964236,49.7771173 50.285117,49.5915946 L50.285117,52.1113198 C49.7100257,52.4330676 48.9486825,52.6371134 48.0516976,52.6371134 C46.1241282,52.6371134 44.9714662,51.7894262 44.9714662,49.6085133 L44.9714662,45.8853698 L43.8907088,45.8853698 L43.8907088,43.2972403 L44.9714662,43.2972403 L44.9714662,40.9790814 L48.1871934,40.9790814 Z M8.36777484,40.6064316 L8.36777484,45.0401621 L12.5803949,45.0401621 L12.5803949,40.6064316 L15.861901,40.6064316 L15.861901,52.4499863 L12.5803949,52.4499863 L12.5803949,47.9501852 L8.36777484,47.9501852 L8.36777484,52.4499863 L5.08422686,52.4499863 L5.08422686,40.6064316 L8.36777484,40.6064316 Z M1.99232734,43.9687392 C2.9195034,43.9687392 3.67107461,44.7203104 3.67107461,45.6474865 L3.67107461,45.6474865 L3.67107461,52.4499863 L0.195440603,52.4499863 L0.195440603,45.6474865 C0.195440603,44.7203104 0.947011818,43.9687392 1.87418787,43.9687392 L1.87418787,43.9687392 Z M42.9636786,43.14468 L42.9636786,46.5290111 L42.6935622,46.5290111 C41.0191905,46.5290111 40.0707202,47.4929417 40.0707202,49.6085133 L40.0707202,52.4499863 L36.8573266,52.4499863 L36.8573266,43.2972403 L40.0707202,43.2972403 L40.0707202,45.1409453 C40.5956386,43.8892503 41.4417214,43.0778801 42.9636786,43.14468 Z M32.5684263,48.7565965 L30.7352226,48.7565965 C29.9274987,48.7565965 29.4848403,49.0447984 29.4848403,49.6018041 C29.4848403,50.1780622 29.9795676,50.6583502 30.8126696,50.6224708 C32.4034686,50.5540666 32.5569041,49.2325089 32.5684263,48.8565045 L32.5684263,48.8565045 L32.5684263,48.7565965 Z M21.4447931,45.4628389 C20.5987103,45.4628389 19.9296909,46.1166898 19.8547234,47.0768282 L23.0345712,47.0768282 C23.0345712,46.0984584 22.3242758,45.4628389 21.4447931,45.4628389 Z M1.93325761,39.7534938 C2.87560219,39.7534938 3.6394249,40.5174624 3.6394249,41.4596611 C3.6394249,42.4020057 2.87560219,43.1658284 1.93325761,43.1658284 C0.990913028,43.1658284 0.227090313,42.4020057 0.227090313,41.4596611 C0.227090313,40.5174624 0.990913028,39.7534938 1.93325761,39.7534938 Z M36.9028322,1.65813613e-14 C44.4730927,1.65813613e-14 50.6061355,6.13333451 50.6061355,13.7030116 C50.6061355,18.5055998 47.5644088,21.9679614 44.3868946,25.1720204 L44.3868946,25.1720204 L31.9632897,36.917709 C31.3123558,37.533201 30.2409329,37.071582 30.2409329,36.175764 L30.2409329,36.175764 L30.2409329,27.0244765 C30.2409329,24.3766939 28.0966286,22.230056 25.449867,22.2256804 C22.8031053,22.230056 20.658801,24.3766939 20.658801,27.0244765 L20.658801,27.0244765 L20.658801,36.175764 C20.658801,37.071582 19.5873781,37.533201 18.9364442,36.917709 L18.9364442,36.917709 L6.51283933,25.1720204 C3.33532516,21.9679614 0.293598458,18.5055998 0.293598458,13.7030116 C0.293598458,6.13333451 6.42649542,1.65813613e-14 13.9969018,1.65813613e-14 C18.7475669,1.65813613e-14 22.9919826,2.5169541 25.449867,6.19240425 C27.9077513,2.5169541 32.152167,1.65813613e-14 36.9028322,1.65813613e-14 Z M40.7145073,4.32682159 C40.2700987,4.04897506 39.6836311,4.18286646 39.4054928,4.62727506 C39.1264795,5.0709544 39.2603709,5.65727621 39.7047795,5.93599784 C41.8323109,7.26995289 43.4988067,10.3970025 43.4988067,13.0533904 L43.4988067,13.0533904 L43.4988067,13.0993335 C43.4988067,16.3720885 41.6389122,19.6795561 37.971338,22.9291207 C37.5778315,23.2775592 37.5422438,23.8777369 37.8899531,24.2696391 C38.0778094,24.4818526 38.3391747,24.5890532 38.6005401,24.5890532 C38.8247134,24.5890532 39.0497618,24.510877 39.2304714,24.3511699 C43.322035,20.7239965 45.3973517,16.9390121 45.3973517,13.0993335 L45.3973517,13.0993335 L45.3973517,13.0533904 C45.3973517,9.75423631 43.3834384,6.00206844 40.7145073,4.32682159 Z M11.4942411,4.62727506 C11.215957,4.18286646 10.6296352,4.04897506 10.1852266,4.32682159 C7.51629556,6.00206844 5.50238224,9.75423631 5.50238224,13.0533904 L5.50238224,13.0533904 L5.50238224,13.0993335 C5.50238224,16.9390121 7.57769891,20.7239965 11.6692625,24.3511699 C11.8499722,24.510877 12.0750206,24.5890532 12.2991938,24.5890532 C12.5605592,24.5890532 12.8219245,24.4818526 13.0097809,24.2696391 C13.3574901,23.8777369 13.3219024,23.2775592 12.9283959,22.9291207 C9.26082172,19.6795561 7.40092726,16.3720885 7.40092726,13.0993335 L7.40092726,13.0993335 L7.40092726,13.0533904 C7.40092726,10.3970025 9.06727718,7.26995289 11.1949544,5.93599784 C11.639363,5.65727621 11.7732544,5.0709544 11.4942411,4.62727506 Z M33.6216178,6.71542664 C33.157811,6.47156344 32.5835948,6.6500853 32.3391482,7.11389211 C32.0948475,7.57813646 32.2730776,8.15191507 32.7376137,8.39636168 C34.6402426,9.39733844 35.8235333,11.3504318 35.8283464,13.4961946 C35.8226582,15.8312723 34.3443105,18.2235236 32.1464788,19.4546535 C31.6883602,19.7101848 31.5252986,20.2892141 31.7811216,20.7466034 C31.9552679,21.0571206 32.2778907,21.2321421 32.6101398,21.2321421 C32.7682424,21.2321421 32.9272203,21.1934915 33.0739466,21.1112314 C35.8477446,19.5577703 37.7156609,16.5071467 37.7277665,13.511509 L37.7277665,13.511509 L37.7277665,13.4824846 C37.716536,10.633719 36.1461562,8.04311008 33.6216178,6.71542664 Z M18.5605857,7.11389211 C18.3161391,6.6500853 17.7419229,6.47156344 17.2781161,6.71542664 C14.7535778,8.04311008 13.1831979,10.633719 13.1719674,13.4824846 L13.1719674,13.4824846 L13.1719674,13.511509 C13.184073,16.5071467 15.0519893,19.5577703 17.8257874,21.1112314 C17.9725137,21.1934915 18.1313456,21.2321421 18.2894483,21.2321421 C18.6218432,21.2321421 18.9444661,21.0571206 19.1186124,20.7466034 C19.3742895,20.2892141 19.2113737,19.7101848 18.7532551,19.4546535 C16.5554235,18.2235236 15.0770757,15.8312723 15.0712417,13.4961946 C15.0762006,11.3504318 16.2593455,9.39733844 18.1619744,8.39636168 C18.6266563,8.15191507 18.8048865,7.57813646 18.5605857,7.11389211 Z M25.449867,10.0794845 C23.17488,10.0806513 21.331175,11.9252314 21.331175,14.2003642 C21.331175,16.4756429 23.17488,18.3200771 25.449867,18.3213897 C27.7248539,18.3200771 29.5685589,16.4756429 29.5685589,14.2003642 C29.5685589,11.9252314 27.7248539,10.0806513 25.449867,10.0794845 Z" id="Combined-Shape"></path>
                    </g>
                </g>
            </g>
        </g>
    </g>
</svg>