<?xml version="1.0" encoding="UTF-8"?>
<svg width="134px" height="36px" viewBox="0 0 134 36" version="1.1" xmlns="http://www.w3.org/2000/svg" xmlns:xlink="http://www.w3.org/1999/xlink">
    <title>Netflix</title>
    <g id="Page-1" stroke="none" stroke-width="1" fill="none" fill-rule="evenodd">
        <g id="Artboard" transform="translate(-134.000000, -1304.000000)" fill="#939DA4">
            <g id="Logo-Section" transform="translate(0.000000, 1200.000000)">
                <g id="Logos" transform="translate(134.000000, 91.000000)">
                    <path d="M5.36249726,13.0031925 L12.7114002,33.3738276 L12.7114002,13.0031925 L18.3539004,13.0031925 L18.3539004,46.7514319 C16.2909681,46.9636407 14.2320734,47.1893708 12.1768407,47.4276831 L12.1768407,47.4276831 L5.64240628,28.6565014 L5.64240628,48.2314474 C3.75797348,48.476896 1.87720268,48.7327672 0,49 L0,49 L0,13.0031925 L5.36249726,13.0031925 Z M120.038154,13.0031925 L123.708615,22.4728688 L127.794103,13.0031925 L133.99229,13.0031925 L126.641979,30.0384876 L133.99229,48.9955868 L133.9829,48.9992488 C131.843911,48.6939874 129.701165,48.4057215 127.552786,48.1294745 L127.552786,48.1294745 L123.42786,37.4897391 L119.262559,47.1415769 C117.288829,46.9237342 115.313222,46.7175349 113.331981,46.5242934 L113.331981,46.5242934 L120.493558,29.9242141 L113.932926,13.0031925 L120.038154,13.0031925 Z M39.4528999,13.0034742 L39.4528999,18.6131102 L29.422091,18.6131102 L29.422091,26.2116871 C31.4193513,26.1861344 34.1467838,26.1576196 36.1657149,26.1537095 L37.0419827,26.1537523 L37.0419827,31.7138103 C34.4901251,31.6820728 31.6096256,31.7488341 29.422091,31.7706184 L29.422091,31.7706184 L29.422091,40.1877015 C32.7560225,39.9255391 36.0997194,39.6960532 39.4528999,39.5022483 L39.4528999,39.5022483 L39.4528999,45.0624941 C34.2046761,45.3647508 28.9802085,45.7542384 23.7796847,46.2268255 L23.7796847,46.2268255 L23.7796847,13.0034742 L39.4528999,13.0034742 Z M109.123486,13.0031925 L109.123486,46.1310499 C107.244593,45.963912 105.363822,45.8092625 103.480235,45.6651295 L103.480235,45.6651295 L103.480235,13.0031925 L109.123486,13.0031925 Z M89.1514465,13 L89.1514465,39.2237478 C92.3862221,39.3743597 95.6116078,39.5562395 98.8285428,39.7707957 L98.8285428,39.7707957 L98.8285428,45.3303843 C93.7430437,44.9913197 88.6368872,44.7326315 83.5091342,44.5561978 L83.5091342,44.5561978 L83.5091342,13 L89.1514465,13 Z M60.5231666,13.0031925 L60.5231666,18.6127346 L54.6179407,18.6127346 L54.6179407,44.4323467 C52.7345408,44.481643 50.8531127,44.5400474 48.9755344,44.6109401 L48.9755344,44.6109401 L48.9755344,18.6127346 L43.0700268,18.6127346 L43.0700268,13.0031925 L60.5231666,13.0031925 Z M79.892195,13.0034742 L79.892195,18.6131102 L69.7831694,18.6131102 L69.7831694,25.8834208 L77.4320755,25.8834208 L77.4320755,31.4430093 L69.7831694,31.4430093 L69.7831694,44.2791996 L64.1405753,44.2804202 L64.1405753,13.0034742 L79.892195,13.0034742 Z" id="Netflix"></path>
                </g>
            </g>
        </g>
    </g>
</svg>